<?xml version="1.0" encoding="UTF-8" standalone="no"?>
<!-- Created with Inkscape (http://www.inkscape.org/) -->

<svg
   width="360"
   height="360"
   viewBox="0 0 95.250003 95.250003"
   version="1.1"
   id="svg5"
   sodipodi:docname="favicon.svg"
   inkscape:version="1.1 (c4e8f9e, 2021-05-24)"
   inkscape:export-filename="/Users/williamkamp/source/tartan37_org/src/assets/images/favicon.png"
   inkscape:export-xdpi="96"
   inkscape:export-ydpi="96"
   xmlns:inkscape="http://www.inkscape.org/namespaces/inkscape"
   xmlns:sodipodi="http://sodipodi.sourceforge.net/DTD/sodipodi-0.dtd"
   xmlns="http://www.w3.org/2000/svg"
   xmlns:svg="http://www.w3.org/2000/svg">
  <sodipodi:namedview
     id="namedview14"
     pagecolor="#505050"
     bordercolor="#eeeeee"
     borderopacity="1"
     inkscape:pageshadow="0"
     inkscape:pageopacity="0"
     inkscape:pagecheckerboard="0"
     inkscape:document-units="mm"
     showgrid="false"
     inkscape:zoom="0.21234439"
     inkscape:cx="162.47191"
     inkscape:cy="87.12262"
     inkscape:window-width="1440"
     inkscape:window-height="847"
     inkscape:window-x="0"
     inkscape:window-y="25"
     inkscape:window-maximized="1"
     inkscape:current-layer="svg5"
     units="px" />
  <defs
     id="defs2" />
  <path
     id="path6308"
     style="fill:#7c7c7c;fill-opacity:1;stroke:none;stroke-width:1;stroke-linecap:butt;stroke-linejoin:miter;stroke-opacity:1;stroke-miterlimit:4;stroke-dasharray:none;opacity:1"
     d="M 6.7334762,0 C -4.4172305,68.490851 32.088566,83.318485 45.812485,94.705347 l 1.740731,0.538356 1.851263,0.0063 C 63.128403,83.863135 93.609734,68.729191 90.038187,21.416476 L 89.837694,0 Z M 9.8250496,14.212053 H 27.235454 c 0,0 -11.275657,30.377269 4.945901,62.91039 0,0 -24.928024,-11.954914 -22.3563054,-62.91039 z m 39.7636404,0.0031 h 35.692958 c -0.296471,17.622378 -0.948126,31.668459 -5.201978,39.60946 -4.211598,7.862189 -10.312358,12.94098 -12.488061,13.498181 -4.351401,1.114381 -6.269688,1.206384 -9.495737,0 C 54.86981,66.116422 35.741017,52.235846 49.58869,14.215167 Z" />
</svg>
